<?xml version="1.0" standalone="no"?>
<!DOCTYPE svg PUBLIC "-//W3C//DTD SVG 20010904//EN"
 "http://www.w3.org/TR/2001/REC-SVG-20010904/DTD/svg10.dtd">
<svg version="1.0" xmlns="http://www.w3.org/2000/svg"
 width="700.000000pt" height="700.000000pt" viewBox="0 0 700.000000 700.000000"
 preserveAspectRatio="xMidYMid meet">
<metadata>
Created by potrace 1.11, written by Peter Selinger 2001-2013
</metadata>
<g transform="translate(0.000000,700.000000) scale(0.100000,-0.100000)"
fill="#000000" stroke="none">
<path d="M4840 5496 c0 -8 10 -16 23 -20 71 -17 96 -90 57 -166 -18 -35 -221
-262 -228 -255 -2 2 1 29 7 61 16 84 14 164 -3 164 -10 0 -17 -25 -26 -82 -6
-46 -23 -124 -36 -175 -25 -97 -30 -143 -15 -143 4 0 26 26 49 58 22 31 77 97
122 147 154 167 189 223 190 297 0 44 -38 94 -87 114 -41 18 -53 18 -53 0z"/>
<path d="M4329 5485 c-3 -2 -60 -9 -126 -14 -130 -9 -172 -24 -192 -68 -25
-55 -5 -112 56 -159 87 -66 123 -106 123 -136 0 -40 -27 -83 -71 -114 -70 -48
-156 -44 -214 10 -30 28 -35 40 -35 77 0 24 9 63 20 87 15 34 16 42 5 42 -36
0 -69 -102 -55 -167 16 -68 95 -122 181 -123 93 0 199 81 215 166 9 48 -25
100 -112 173 -66 55 -74 65 -74 96 0 46 29 60 153 74 103 12 147 26 147 48 0
13 -12 18 -21 8z"/>
<path d="M4483 5250 c-106 -53 -213 -191 -213 -276 0 -18 8 -42 18 -54 16 -19
24 -22 55 -16 20 4 50 18 66 31 36 31 41 31 41 0 0 -18 7 -26 26 -31 21 -5 33
1 64 31 39 38 78 110 67 122 -4 3 -32 -20 -62 -53 l-56 -59 7 45 c4 25 17 81
30 124 13 44 24 88 24 98 0 35 -21 17 -46 -39 -67 -155 -101 -203 -154 -222
l-30 -10 0 43 c0 77 78 175 198 250 38 24 55 46 34 46 -5 0 -36 -14 -69 -30z"/>
<path d="M5065 5273 c-43 -8 -119 -78 -149 -136 -56 -109 -34 -228 44 -235 26
-3 40 3 67 30 19 18 41 45 49 61 22 41 -7 36 -43 -7 -33 -39 -64 -58 -80 -48
-20 12 -32 58 -26 99 5 37 7 39 34 35 63 -9 179 90 179 153 0 32 -22 58 -47
54 -4 -1 -17 -4 -28 -6z m20 -73 c-18 -35 -100 -100 -127 -100 -37 0 42 94
102 122 34 15 41 9 25 -22z"/>
<path d="M1080 3450 l0 -1810 1354 0 c1174 0 1364 2 1428 15 400 83 690 346
804 730 36 121 45 340 19 466 -82 408 -399 730 -794 806 l-91 18 0 480 0 480
-312 312 -313 313 -1047 0 -1048 0 0 -1810z m1810 1240 l0 -340 340 0 340 0 0
-340 0 -340 -27 0 c-43 0 -205 -46 -277 -79 -35 -16 -97 -51 -138 -78 l-73
-48 -760 -5 -760 -5 -3 -117 -3 -118 648 0 648 0 -54 -110 -53 -110 -594 0
-594 0 0 -115 0 -115 568 0 567 0 1 -118 c0 -64 6 -144 13 -177 43 -208 139
-390 282 -532 l72 -73 -861 0 -862 0 0 1580 0 1580 790 0 790 0 0 -340z m430
95 l195 -195 -198 0 -197 0 0 195 c0 107 1 195 3 195 1 0 90 -88 197 -195z
m590 -1385 c226 -76 411 -247 492 -456 15 -40 36 -117 45 -171 55 -325 -121
-656 -432 -811 -114 -56 -165 -67 -335 -67 -144 0 -161 2 -235 28 -203 71
-366 215 -456 402 -59 123 -74 190 -74 335 0 149 15 215 79 345 102 206 297
360 520 411 94 21 312 13 396 -16z"/>
<path d="M1530 3790 l0 -120 910 0 910 0 0 120 0 120 -910 0 -910 0 0 -120z"/>
<path d="M3620 2945 l-285 -285 173 -172 172 -173 287 288 288 287 -170 170
c-94 93 -172 170 -175 170 -3 0 -133 -128 -290 -285z"/>
<path d="M3230 2377 l0 -177 170 0 c94 0 170 3 170 8 0 4 -76 84 -170 177
l-170 170 0 -178z"/>
<path d="M4611 4173 c-123 -382 -139 -443 -117 -443 15 0 41 56 76 165 17 50
35 82 69 118 51 55 129 112 139 103 3 -4 -13 -62 -36 -130 -47 -138 -50 -165
-23 -190 17 -16 24 -16 57 -4 20 7 49 24 64 38 l27 25 9 -30 c13 -43 52 -62
93 -45 30 12 101 91 101 111 0 22 -29 5 -64 -37 -27 -32 -44 -44 -59 -42 -30
4 -50 50 -42 96 6 35 8 37 43 37 70 1 172 92 172 155 0 118 -203 7 -245 -133
-8 -28 -15 -61 -15 -74 0 -17 -12 -29 -50 -48 -87 -44 -88 -40 -23 147 51 146
52 169 4 176 -22 4 -82 -28 -137 -73 l-31 -25 42 147 c50 172 54 195 38 200
-8 3 -40 -82 -92 -244z m437 -120 c-32 -35 -98 -83 -115 -83 -35 0 42 92 102
123 27 14 30 14 33 0 2 -8 -7 -26 -20 -40z"/>
<path d="M4455 4246 c-14 -19 -39 -65 -55 -103 l-29 -68 -75 4 c-53 2 -76 0
-76 -8 0 -16 62 -41 103 -41 l33 0 -13 -77 c-19 -109 1 -183 49 -183 24 0 108
82 108 105 0 24 -13 18 -55 -25 -21 -22 -45 -40 -52 -40 -27 0 -6 217 21 225
6 2 23 6 39 9 36 8 35 26 -3 26 -16 0 -30 2 -30 4 0 2 18 44 40 94 22 49 40
95 40 101 0 21 -19 11 -45 -23z"/>
<path d="M5470 3269 c-30 -11 -95 -24 -145 -30 -226 -26 -246 -29 -294 -54
-47 -24 -101 -79 -101 -103 0 -21 17 -13 57 27 28 28 57 45 107 60 62 19 116
27 116 17 0 -26 -85 -291 -126 -395 -58 -144 -65 -173 -37 -150 41 34 171 358
188 469 12 80 8 77 95 83 85 5 185 42 196 72 9 24 4 24 -56 4z"/>
<path d="M6000 3104 c-16 -26 -39 -71 -51 -100 -22 -53 -23 -54 -63 -53 -23 0
-50 4 -61 8 -19 8 -18 9 8 21 15 7 27 19 27 27 0 30 -64 8 -137 -48 -52 -39
-53 -39 -53 -15 0 33 -17 76 -30 76 -8 0 -10 -27 -9 -79 2 -61 -1 -84 -13 -98
-8 -10 -41 -63 -73 -118 -138 -238 -231 -325 -305 -285 -10 5 -32 32 -49 60
-51 83 -66 59 -20 -32 30 -58 66 -81 121 -76 84 8 152 80 285 301 l66 110 22
-68 c30 -93 65 -115 120 -79 29 19 85 92 85 111 0 23 -16 14 -67 -37 -61 -60
-77 -58 -98 13 -25 86 -21 115 26 163 40 41 42 41 60 23 10 -10 41 -21 69 -25
46 -6 51 -9 45 -28 -3 -12 -8 -53 -12 -93 -12 -144 46 -184 126 -86 29 35 40
63 25 63 -4 0 -27 -19 -52 -41 -40 -38 -46 -40 -55 -24 -11 20 -4 119 13 176
9 31 16 38 46 43 38 8 42 29 6 34 -12 2 -22 7 -22 11 0 5 16 42 35 84 19 42
35 83 35 91 0 29 -20 17 -50 -30z"/>
<path d="M5449 3000 c-85 -45 -146 -157 -137 -251 7 -69 30 -99 75 -99 30 0
44 8 80 45 39 41 55 75 35 75 -4 0 -28 -20 -52 -45 -24 -25 -50 -45 -57 -45
-23 0 -44 46 -41 91 3 41 5 44 35 45 40 2 113 44 147 85 74 87 17 153 -85 99z
m71 -25 c0 -33 -63 -96 -127 -127 -33 -16 -33 -16 -22 5 24 47 62 88 97 107
39 20 52 24 52 15z"/>
</g>
</svg>
