<?xml version="1.0" encoding="UTF-8" ?>
<!DOCTYPE svg PUBLIC "-//W3C//DTD SVG 1.1//EN" "http://www.w3.org/Graphics/SVG/1.1/DTD/svg11.dtd">
<svg width="677pt" height="340pt" viewBox="0 0 677 340" version="1.1" xmlns="http://www.w3.org/2000/svg">
<g id="#ffffffff">
</g>
<g id="#ffbe2eff">
<path fill="#ffbe2e" opacity="1.00" d=" M 250.99 73.20 C 257.36 73.07 262.59 68.15 269.05 68.54 C 276.61 71.10 281.29 82.38 274.24 88.04 C 287.47 87.59 300.71 87.80 313.93 87.25 C 318.18 86.88 322.22 88.36 326.03 90.06 C 332.62 93.12 340.04 91.58 347.03 92.12 C 362.32 93.00 377.64 92.62 392.94 92.83 C 409.62 93.74 426.32 93.23 442.99 94.05 C 452.32 94.61 461.72 93.61 471.00 94.98 C 473.63 95.27 476.29 95.47 478.95 95.30 C 491.96 94.28 504.97 93.13 517.92 91.52 C 520.41 91.22 522.98 90.79 525.46 91.46 C 533.84 93.57 540.75 99.05 548.59 102.44 C 559.23 106.75 569.41 112.78 581.10 113.79 C 565.40 114.83 549.65 113.78 533.95 114.52 C 529.80 115.00 526.07 111.65 521.96 112.95 C 522.68 113.53 524.13 114.70 524.86 115.28 C 523.85 116.29 522.83 117.30 521.86 118.32 C 525.83 117.25 529.82 115.95 533.99 116.00 C 549.71 116.07 565.46 115.13 581.15 116.25 C 574.19 117.86 567.10 119.34 560.73 122.72 C 553.17 126.75 545.06 129.58 537.39 133.37 C 533.56 135.14 530.08 137.74 525.97 138.83 C 519.12 139.54 512.31 137.84 505.50 137.26 C 493.36 136.03 481.23 134.09 469.00 134.31 C 451.70 135.90 434.30 134.59 416.99 135.83 C 404.32 136.28 391.64 135.71 378.98 136.21 C 368.67 136.58 358.36 136.88 348.04 136.76 C 341.68 136.90 335.13 136.12 328.97 138.12 C 325.31 139.22 322.01 141.52 318.12 141.81 C 312.76 142.32 307.38 141.77 302.01 141.76 C 247.34 141.76 192.67 141.76 137.99 141.76 C 127.76 141.85 117.37 141.68 107.37 139.25 C 100.77 137.40 94.43 134.27 89.21 129.80 C 84.91 126.23 83.49 120.39 83.40 115.03 C 83.61 109.90 86.38 105.34 89.27 101.27 C 91.71 97.62 96.58 97.42 99.84 94.86 C 102.79 90.88 100.57 84.95 104.19 81.26 C 107.77 77.59 111.43 72.64 117.08 72.66 C 156.39 72.87 195.71 72.68 235.02 72.76 C 240.35 72.77 245.67 73.30 250.99 73.20 M 135.97 85.24 C 133.48 85.12 131.13 86.02 128.97 87.17 C 134.56 88.47 140.30 87.75 145.97 87.74 C 177.99 87.76 210.01 87.75 242.04 87.75 C 247.91 87.73 253.81 87.98 259.65 87.18 C 255.80 84.07 250.78 83.37 245.98 83.82 C 225.65 84.72 205.29 84.41 184.95 84.56 C 168.63 85.30 152.30 85.29 135.97 85.24 Z" />
</g>
<g id="#121212ff">
<path fill="#121212" opacity="1.00" d=" M 88.66 194.69 C 108.16 183.10 130.55 176.94 153.00 174.60 C 160.95 174.11 169.47 173.43 176.76 177.27 C 180.61 179.21 183.09 184.12 181.13 188.21 C 177.26 197.61 168.05 203.02 159.32 207.22 C 151.64 210.44 143.78 213.22 135.85 215.77 C 131.63 217.13 127.24 218.18 122.78 218.19 C 120.69 218.30 118.63 216.55 119.02 214.36 C 120.88 212.68 123.05 214.25 124.97 214.91 C 135.39 212.15 145.66 208.78 155.65 204.75 C 165.23 200.53 175.59 193.94 177.82 182.91 C 174.32 178.36 168.40 177.35 163.01 177.30 C 143.68 177.47 124.78 182.71 106.94 189.83 C 95.09 195.50 82.29 201.44 74.91 212.87 C 73.00 215.38 73.05 219.31 75.14 221.69 C 79.22 224.64 84.33 225.44 89.16 226.34 C 96.79 227.50 104.48 228.34 112.02 230.00 C 117.51 231.28 122.92 234.25 125.76 239.30 C 127.69 243.38 126.64 248.42 123.85 251.86 C 119.24 257.75 112.89 262.11 106.16 265.25 C 95.20 270.47 83.25 274.87 70.91 273.88 C 67.40 273.44 63.99 272.02 61.15 269.93 C 58.02 267.22 56.72 261.96 59.41 258.53 C 62.38 254.71 66.39 251.78 70.73 249.70 C 71.52 250.30 72.32 250.91 73.12 251.51 C 69.37 254.22 65.05 256.76 63.14 261.20 C 61.88 263.56 62.32 266.81 64.51 268.48 C 67.44 270.77 71.36 270.95 74.92 270.94 C 85.64 270.07 95.87 266.18 105.31 261.19 C 110.96 258.15 116.45 254.40 120.27 249.15 C 122.36 246.45 122.89 242.55 121.40 239.45 C 120.00 236.23 116.63 234.50 113.47 233.42 C 106.12 231.32 98.39 231.23 90.92 229.75 C 85.00 228.59 78.56 228.21 73.51 224.55 C 68.99 221.80 67.48 215.00 70.71 210.73 C 75.40 204.13 81.83 198.96 88.66 194.69 Z" />
<path fill="#121212" opacity="1.00" d=" M 365.96 179.10 C 382.21 178.49 398.53 177.47 414.73 179.49 C 415.38 180.37 416.03 181.25 416.69 182.14 C 415.10 182.83 413.52 183.59 411.83 183.99 C 409.47 183.86 407.42 182.40 405.08 182.15 C 383.98 181.02 362.91 183.23 341.87 184.62 C 320.84 186.35 299.86 188.73 278.92 191.43 C 275.80 191.85 272.61 191.08 270.39 188.79 C 302.12 184.49 333.97 180.81 365.96 179.10 Z" />
<path fill="#121212" opacity="1.00" d=" M 532.04 178.68 C 545.57 178.21 559.29 177.53 572.66 180.20 C 572.67 180.85 572.69 182.16 572.70 182.81 C 570.52 183.50 568.29 183.96 566.03 184.16 C 565.82 183.68 565.40 182.73 565.19 182.25 C 522.31 181.08 479.63 186.48 437.08 191.08 C 433.84 191.39 429.17 192.54 427.63 188.63 C 441.05 186.22 454.72 185.59 468.22 183.70 C 489.46 181.65 510.69 179.37 532.04 178.68 Z" />
<path fill="#121212" opacity="1.00" d=" M 354.20 193.18 C 355.86 190.89 357.85 188.87 359.95 186.99 C 360.78 186.99 362.43 186.97 363.26 186.97 C 363.67 187.45 364.47 188.42 364.87 188.90 C 363.42 189.68 361.69 190.17 360.70 191.58 C 348.70 206.25 340.24 223.34 331.91 240.24 C 337.05 234.32 341.90 227.86 348.82 223.88 C 350.36 223.34 352.20 222.23 353.79 223.21 C 355.13 224.85 354.29 226.93 353.78 228.70 C 351.86 234.38 348.02 239.23 346.56 245.10 C 348.13 244.53 349.73 244.02 351.19 243.19 C 359.73 237.85 368.05 232.14 375.95 225.88 C 378.85 223.85 382.58 221.17 386.24 222.85 C 388.62 223.91 388.17 227.09 386.84 228.83 C 382.53 234.29 376.24 239.27 368.86 238.65 C 368.39 240.79 368.16 243.05 369.59 244.92 C 380.57 243.49 389.78 236.68 398.89 230.88 C 402.30 228.86 405.43 225.08 409.81 226.00 C 408.39 229.72 404.51 231.35 401.47 233.48 C 392.95 239.08 384.33 245.16 374.14 247.18 C 371.51 247.23 368.22 247.89 366.28 245.63 C 364.46 243.84 364.46 241.18 364.46 238.81 C 358.94 242.34 353.43 246.20 347.05 248.00 C 345.13 248.15 343.94 246.44 342.62 245.37 C 343.44 238.55 347.61 232.94 350.29 226.80 C 346.06 230.39 342.28 234.47 338.53 238.54 C 334.82 242.59 331.76 247.36 327.17 250.51 C 326.44 250.41 324.97 250.21 324.23 250.11 C 325.50 245.85 326.82 241.58 328.72 237.55 C 336.21 222.22 344.01 206.92 354.20 193.18 M 370.87 236.32 C 376.58 234.22 382.21 230.65 384.51 224.73 C 379.07 227.40 374.67 231.68 370.87 236.32 Z" />
<path fill="#121212" opacity="1.00" d=" M 323.84 206.74 C 327.70 201.04 331.64 195.38 334.80 189.24 C 335.93 189.92 337.07 190.60 338.21 191.28 C 337.51 193.16 336.86 195.07 335.81 196.80 C 323.64 215.13 312.15 233.91 300.95 252.85 C 297.11 259.02 295.15 266.13 291.21 272.24 C 289.86 271.23 288.54 270.21 287.29 269.10 C 291.14 262.51 294.30 255.56 297.88 248.84 C 306.21 234.61 314.99 220.66 323.84 206.74 Z" />
<path fill="#121212" opacity="1.00" d=" M 491.11 189.43 C 492.50 189.98 493.84 190.69 494.93 191.77 C 492.93 195.71 490.70 199.53 488.15 203.14 C 478.09 218.57 468.39 234.23 459.21 250.20 C 455.82 256.25 452.67 262.45 450.14 268.92 C 449.82 270.74 448.24 271.50 446.63 271.91 C 445.73 270.62 444.84 269.35 443.95 268.07 C 445.60 266.25 447.04 264.23 447.96 261.95 C 452.10 252.52 457.66 243.83 462.86 234.98 C 467.40 226.93 472.70 219.34 477.51 211.46 C 481.99 204.08 487.30 197.21 491.11 189.43 Z" />
<path fill="#121212" opacity="1.00" d=" M 575.06 209.00 C 579.32 202.42 582.75 195.22 588.19 189.48 C 589.06 189.57 590.79 189.75 591.66 189.84 C 588.24 196.48 583.52 202.32 580.17 209.00 C 587.08 209.07 594.01 208.73 600.89 209.48 C 601.26 210.12 601.98 211.40 602.34 212.04 C 598.91 212.96 595.42 213.60 591.94 214.25 C 591.62 213.74 590.98 212.74 590.67 212.23 C 586.56 212.26 582.45 212.16 578.35 212.43 C 572.84 222.09 567.27 231.77 563.23 242.16 C 562.48 244.12 562.42 246.23 562.21 248.29 C 568.69 247.38 574.40 244.07 580.04 240.99 C 587.78 236.52 595.06 231.30 602.33 226.11 C 603.90 224.74 605.68 226.48 607.27 226.86 C 600.84 233.20 592.81 237.44 585.32 242.34 C 580.44 245.29 575.34 247.86 570.17 250.23 C 566.26 251.95 561.28 251.53 558.03 248.66 C 557.19 244.22 559.25 239.99 560.87 236.00 C 554.71 241.01 548.18 245.85 540.57 248.40 C 537.30 249.50 533.69 249.40 530.40 248.42 C 527.75 246.38 526.18 243.33 524.50 240.52 C 519.40 243.80 514.90 248.30 508.90 249.92 C 507.69 249.29 506.49 248.68 505.29 248.05 C 511.84 244.84 517.64 240.37 523.45 236.00 C 522.84 234.16 522.22 232.32 521.62 230.49 C 515.14 235.64 507.82 239.58 500.53 243.44 C 495.92 245.38 491.10 247.64 485.97 247.18 C 483.45 246.96 481.65 245.06 479.84 243.52 C 480.62 234.19 488.41 227.28 496.14 223.07 C 498.78 221.22 501.78 222.45 503.98 224.32 C 503.70 228.89 500.07 232.16 496.66 234.74 C 493.21 237.18 489.15 239.07 484.83 238.62 C 484.47 240.39 484.14 242.17 483.85 243.95 C 486.83 245.32 490.02 244.02 492.93 243.12 C 502.26 239.77 510.04 233.43 518.33 228.18 C 520.08 227.23 520.67 225.25 521.49 223.58 C 525.24 225.36 525.67 229.77 526.91 233.25 C 531.98 229.20 537.22 225.35 542.79 222.00 C 544.49 222.54 546.20 223.15 547.87 223.84 C 540.70 227.65 534.49 232.91 528.01 237.72 C 529.23 240.71 530.48 243.74 532.70 246.14 C 535.65 246.06 538.69 245.75 541.30 244.27 C 548.56 240.14 555.34 235.20 561.60 229.68 C 567.40 225.36 569.55 218.12 573.36 212.24 C 549.26 212.36 525.15 212.76 501.07 212.35 C 500.65 211.72 499.80 210.46 499.38 209.84 C 511.89 208.81 524.45 209.43 536.98 209.23 C 549.67 208.80 562.36 209.07 575.06 209.00 M 486.63 236.49 C 492.41 234.20 497.96 230.43 500.42 224.50 C 494.78 227.08 490.04 231.33 486.63 236.49 Z" />
<path fill="#121212" opacity="1.00" d=" M 196.16 230.86 C 195.41 225.21 199.41 220.40 204.26 218.11 C 205.37 218.38 206.49 218.66 207.61 218.94 C 207.34 223.44 204.94 227.31 202.25 230.77 C 210.09 230.04 217.06 226.36 224.02 222.99 C 226.51 221.52 229.25 222.93 231.69 223.74 C 231.49 229.27 226.86 232.87 222.65 235.65 C 219.63 237.65 216.05 238.55 212.47 238.80 C 212.15 240.71 211.89 242.62 211.65 244.55 C 220.34 245.22 227.59 239.78 234.78 235.78 C 241.03 232.56 245.81 226.36 253.20 225.62 C 252.21 227.72 250.77 229.59 248.86 230.92 C 240.28 236.93 231.40 242.73 221.53 246.41 C 217.85 247.38 213.95 247.51 210.21 246.74 C 205.39 242.02 209.25 235.31 213.32 231.57 C 208.92 232.93 204.28 233.44 199.69 233.11 C 193.25 238.62 187.12 244.59 179.82 248.97 C 178.54 249.96 176.61 249.70 175.99 248.09 C 176.20 242.73 178.38 237.70 180.76 232.98 C 174.60 238.34 167.66 242.88 160.20 246.20 C 156.68 247.38 151.98 247.70 149.43 244.48 C 147.89 242.98 148.44 240.67 148.25 238.76 C 144.27 242.43 140.83 247.85 135.00 248.50 C 131.69 249.23 129.15 245.17 130.28 242.28 C 133.80 233.20 141.89 226.02 151.46 223.97 C 152.34 224.51 154.11 225.61 154.99 226.15 C 151.25 227.50 147.16 228.37 144.16 231.17 C 139.63 235.18 134.25 239.50 133.93 246.07 C 141.71 242.04 146.06 234.02 152.81 228.71 C 155.12 226.94 156.48 224.11 159.29 223.00 C 159.96 223.48 161.30 224.45 161.97 224.93 C 157.17 230.07 152.69 236.10 152.18 243.38 C 153.98 243.58 155.87 244.37 157.61 243.51 C 168.11 239.54 176.64 231.92 184.81 224.47 C 185.49 224.76 186.87 225.34 187.55 225.63 C 185.86 231.85 182.91 237.62 180.97 243.75 C 186.11 239.54 191.16 235.23 196.16 230.86 M 213.76 236.32 C 219.84 234.38 224.98 230.12 228.50 224.85 C 222.14 226.31 217.99 231.81 213.76 236.32 Z" />
</g>
</svg>
