<svg version="1.2" xmlns="http://www.w3.org/2000/svg" viewBox="0 0 512 512" width="512" height="512">
	<title>square-opaque-svg</title>
	<style>
		.s0 { fill: #ffbe2e } 
	</style>
	<g id="#ffbe2eff">
		<path id="Layer" fill-rule="evenodd" class="s0" d="m227.1 327.8c-0.1-5.7-4.4-10.3-4.1-16.1 2.3-6.7 12.3-10.8 17.3-4.6-0.4-11.7-0.2-23.4-0.7-35.2-0.3-3.7 1-7.3 2.5-10.7 2.7-5.8 1.3-12.4 1.8-18.6 0.8-13.6 0.5-27.1 0.7-40.7 0.8-14.8 0.3-29.6 1-44.4 0.5-8.3-0.4-16.6 0.9-24.8 0.2-2.4 0.4-4.7 0.2-7.1-0.9-11.5-1.9-23.1-3.3-34.5-0.3-2.2-0.7-4.5-0.1-6.7 1.9-7.4 6.8-13.6 9.8-20.5 3.8-9.5 9.1-18.5 10-28.9 1 14 0 27.9 0.7 41.9 0.4 3.6-2.6 6.9-1.4 10.6 0.5-0.7 1.5-1.9 2.1-2.6q1.3 1.4 2.7 2.7c-1-3.5-2.1-7.1-2.1-10.8 0.1-13.9-0.8-27.9 0.2-41.8 1.5 6.2 2.8 12.5 5.8 18.1 3.5 6.7 6 13.9 9.4 20.7 1.6 3.4 3.9 6.5 4.8 10.1 0.7 6.1-0.8 12.1-1.3 18.2-1.1 10.7-2.9 21.5-2.7 32.3 1.4 15.4 0.3 30.8 1.4 46.2 0.4 11.2-0.1 22.4 0.3 33.7 0.3 9.1 0.6 18.3 0.5 27.4 0.1 5.6-0.6 11.4 1.2 16.9 1 3.3 3 6.2 3.3 9.6 0.4 4.8 0 9.6-0.1 14.3q0 72.7 0 145.5c0.1 9 0 18.2-2.2 27.1-1.6 5.9-4.4 11.5-8.4 16.1-3.1 3.8-8.3 5.1-13.1 5.2-4.5-0.2-8.6-2.7-12.2-5.2-3.2-2.2-3.4-6.5-5.6-9.4-3.6-2.6-8.8-0.7-12.1-3.9-3.3-3.1-7.6-6.4-7.6-11.4 0.2-34.9 0-69.7 0.1-104.6 0-4.7 0.4-9.4 0.3-14.1zm10.7 101.9c-0.1 2.3 0.7 4.3 1.7 6.3 1.2-5 0.6-10.1 0.5-15.1q0.1-42.6 0.1-85.2c-0.1-5.2 0.2-10.4-0.6-15.6-2.7 3.4-3.3 7.8-2.9 12.1 0.8 18 0.5 36.1 0.6 54.1 0.7 14.5 0.7 29 0.6 43.4z"/>
	</g>
</svg>