<?xml version="1.0" encoding="UTF-8" ?>
<!DOCTYPE svg PUBLIC "-//W3C//DTD SVG 1.1//EN" "http://www.w3.org/Graphics/SVG/1.1/DTD/svg11.dtd">
<svg width="843pt" height="843pt" viewBox="0 0 843 843" version="1.1" xmlns="http://www.w3.org/2000/svg">
<g id="#ece45fff">
<path fill="#ece45f" opacity="1.00" d=" M 0.00 0.00 L 843.00 0.00 L 843.00 843.00 L 0.00 843.00 L 0.00 0.00 M 583.29 181.96 C 588.07 183.83 593.71 186.11 595.38 191.48 C 596.97 197.28 593.74 202.94 590.64 207.63 C 582.76 218.60 572.23 227.27 563.55 237.57 C 565.43 228.19 567.24 218.65 566.73 209.04 C 566.64 207.32 565.83 206.94 564.31 207.88 C 563.22 215.31 562.33 222.79 560.60 230.11 C 559.16 237.47 556.54 244.56 555.28 251.96 C 554.69 253.35 555.91 254.49 556.43 255.66 C 559.95 250.75 563.10 245.58 567.04 240.98 C 575.43 230.41 586.08 221.76 593.63 210.51 C 597.34 204.67 600.98 197.53 598.67 190.48 C 596.48 184.11 589.81 180.98 583.71 179.52 C 583.57 180.33 583.43 181.14 583.29 181.96 M 503.96 184.68 C 498.23 184.94 491.99 184.75 487.07 188.16 C 481.67 191.66 480.48 199.84 484.02 205.02 C 488.97 211.79 496.90 215.40 502.50 221.54 C 505.38 224.38 506.34 228.94 504.63 232.65 C 502.25 237.66 497.91 241.60 493.05 244.15 C 483.47 249.00 469.00 245.22 465.64 234.28 C 463.62 227.45 467.81 221.32 470.48 215.39 C 469.85 215.50 468.58 215.73 467.95 215.84 C 462.81 221.08 461.36 229.17 462.76 236.20 C 465.11 243.66 472.42 248.58 479.91 249.80 C 490.52 251.88 501.53 246.05 507.09 237.04 C 510.09 232.93 510.80 227.19 508.45 222.62 C 505.22 216.41 499.09 212.60 493.88 208.23 C 490.35 205.50 485.88 202.01 486.72 196.95 C 487.03 193.09 490.91 191.28 494.17 190.32 C 503.00 188.15 512.46 189.27 521.07 186.03 C 522.19 185.30 524.81 184.47 523.08 182.63 C 516.79 183.96 510.39 184.55 503.96 184.68 M 520.99 227.98 C 517.42 232.97 514.61 238.87 514.70 245.13 C 514.81 248.24 516.51 251.89 519.95 252.36 C 526.26 252.69 531.60 248.54 535.63 244.12 C 535.79 246.53 536.08 248.94 536.54 251.32 C 538.78 251.98 541.34 253.00 543.42 251.32 C 548.96 247.16 552.84 241.06 555.31 234.66 C 554.73 234.58 553.59 234.44 553.01 234.37 C 549.39 239.56 545.62 244.87 540.29 248.45 C 540.14 236.36 545.96 225.42 548.22 213.77 C 547.39 213.60 546.57 213.43 545.76 213.27 C 541.91 221.58 539.19 230.45 534.20 238.19 C 530.81 243.11 526.07 247.85 519.79 248.38 C 518.63 244.52 519.03 240.37 520.78 236.75 C 525.58 226.28 533.93 217.39 544.26 212.24 C 546.23 211.18 548.78 210.35 548.78 207.64 C 537.41 210.65 527.67 218.43 520.99 227.98 M 600.21 214.22 C 593.19 220.35 588.31 229.46 588.68 238.95 C 588.74 243.03 589.53 247.47 592.43 250.56 C 594.82 253.47 599.44 253.32 602.38 251.34 C 607.03 248.20 610.36 243.43 612.67 238.38 C 612.06 238.36 610.84 238.33 610.23 238.31 C 606.93 241.95 604.52 246.70 599.90 248.89 C 597.80 249.98 595.25 248.86 594.23 246.85 C 591.53 241.99 592.51 236.18 593.90 231.08 L 592.99 230.99 C 593.74 230.90 595.23 230.72 595.97 230.63 L 594.97 232.25 C 601.40 233.43 606.76 229.18 611.56 225.59 C 615.28 222.43 619.25 218.20 618.94 212.96 C 618.90 210.38 616.74 208.00 614.12 207.94 C 608.79 207.80 604.15 210.99 600.21 214.22 M 130.35 645.26 C 238.92 645.16 347.50 645.40 456.07 645.14 C 462.87 643.18 470.06 642.79 476.82 640.56 C 497.85 634.76 517.11 623.03 532.14 607.26 C 553.82 585.00 566.07 554.05 566.14 523.03 C 566.23 501.00 560.10 479.02 548.90 460.07 C 529.72 427.58 494.80 404.77 457.16 400.98 C 457.18 362.52 457.13 324.05 457.19 285.58 C 431.87 260.18 406.46 234.88 381.10 209.52 C 297.52 209.52 213.93 209.52 130.34 209.52 C 130.35 354.77 130.34 500.02 130.35 645.26 M 564.54 313.59 C 557.72 333.64 551.50 353.88 545.03 374.05 C 543.20 380.34 541.07 386.65 540.37 393.19 L 542.13 394.00 C 546.82 385.89 548.91 376.59 551.92 367.78 C 553.62 363.28 557.35 360.00 560.71 356.72 C 565.66 352.37 570.62 347.67 576.98 345.49 C 574.70 358.03 567.32 369.19 566.47 382.04 C 566.42 384.67 568.81 386.26 570.76 387.54 C 576.02 386.01 581.02 383.45 585.20 379.90 C 585.25 379.28 585.36 378.05 585.41 377.43 C 580.28 379.30 576.08 383.35 570.47 384.01 C 570.32 381.82 570.17 379.59 570.75 377.46 C 573.31 367.88 577.99 359.02 580.57 349.44 C 581.00 347.25 581.91 344.57 580.26 342.67 C 578.90 340.46 575.89 341.19 573.84 341.82 C 566.78 344.69 560.97 349.82 555.61 355.10 C 559.58 340.58 564.68 326.31 567.56 311.52 C 565.80 311.14 564.79 311.83 564.54 313.59 M 526.67 353.10 C 520.50 353.25 514.50 350.95 508.34 351.70 C 509.05 352.92 509.49 354.52 510.93 355.13 C 515.33 357.56 520.57 357.25 525.44 357.30 C 523.69 365.38 521.44 373.71 522.93 382.01 C 523.52 385.38 525.89 389.93 530.07 388.42 C 535.55 385.85 539.09 380.51 542.29 375.58 C 541.65 375.51 540.39 375.37 539.76 375.30 C 536.19 378.08 534.01 382.54 529.84 384.56 C 527.54 385.88 526.99 382.61 526.78 381.02 C 526.16 372.80 527.97 364.60 530.31 356.77 C 533.44 356.34 536.84 356.12 539.31 353.88 C 536.86 352.94 534.24 352.82 531.66 352.80 C 534.56 344.42 539.35 336.80 542.14 328.41 C 541.62 328.31 540.57 328.09 540.05 327.99 C 533.58 335.05 529.93 344.22 526.67 353.10 M 601.84 346.76 C 592.27 352.69 585.62 363.63 585.92 375.03 C 586.15 379.20 587.20 383.70 590.33 386.68 C 592.65 389.11 596.71 388.90 599.39 387.17 C 604.21 384.18 607.46 379.30 610.04 374.36 C 609.46 374.28 608.29 374.13 607.71 374.05 C 603.96 377.74 601.51 383.45 595.99 384.85 C 591.41 385.19 590.04 379.61 589.94 376.03 C 589.75 363.29 598.83 350.18 611.69 347.70 C 611.71 350.37 610.62 352.84 608.82 354.78 C 604.30 359.86 598.77 364.45 592.02 366.07 C 593.80 369.39 597.98 367.97 600.68 366.69 C 606.82 363.12 613.51 358.89 616.03 351.87 C 617.30 348.69 615.71 344.18 612.02 343.67 C 608.37 343.25 604.86 344.89 601.84 346.76 M 651.05 452.12 C 638.07 455.22 624.41 453.60 611.56 457.35 C 604.15 459.51 597.13 464.49 594.11 471.77 C 594.42 472.26 595.03 473.22 595.34 473.70 C 597.82 470.77 599.95 467.42 603.26 465.32 C 610.76 460.24 619.97 458.89 628.73 457.54 C 624.91 467.95 622.99 478.91 619.46 489.41 C 617.02 496.79 614.06 503.97 611.14 511.16 C 609.25 515.88 606.72 520.37 605.59 525.37 C 608.41 525.21 609.41 522.56 610.54 520.45 C 615.55 510.60 620.30 500.58 623.87 490.10 C 627.25 479.96 630.68 469.68 631.36 458.92 C 641.26 458.59 651.60 458.17 660.59 453.52 C 662.96 452.18 665.92 450.58 665.90 447.43 C 660.86 448.74 656.18 451.15 651.05 452.12 M 713.81 488.71 C 709.81 488.69 705.84 488.19 701.92 487.46 C 700.02 487.32 697.61 486.48 696.16 488.15 C 695.25 489.69 697.16 490.17 698.15 490.86 C 702.53 493.23 707.72 492.81 712.53 492.93 C 710.69 501.12 708.61 509.60 710.11 518.02 C 710.73 520.89 712.53 524.68 716.04 524.31 C 721.36 522.96 724.46 517.98 727.73 513.98 C 727.66 513.04 727.51 511.15 727.44 510.21 C 723.37 513.84 720.57 519.43 714.91 520.81 C 711.93 511.44 715.06 501.63 717.36 492.48 C 719.96 492.06 722.62 491.79 725.14 490.93 C 725.17 490.39 725.24 489.31 725.28 488.78 C 723.12 488.47 720.94 488.54 718.78 488.53 C 721.10 482.13 724.15 476.04 726.98 469.86 C 728.01 467.74 727.55 465.31 727.57 463.05 C 721.02 470.36 717.03 479.55 713.81 488.71 M 660.18 480.11 C 647.53 485.33 638.38 499.08 640.00 512.91 C 640.52 516.83 641.87 521.18 645.46 523.33 C 648.25 524.40 651.66 524.10 654.09 522.27 C 658.17 519.40 661.20 515.25 663.48 510.86 C 663.10 510.42 662.33 509.54 661.95 509.10 C 658.40 512.90 655.84 517.99 650.90 520.23 C 648.14 521.53 645.42 519.13 644.66 516.57 C 642.52 509.94 644.37 502.67 647.76 496.79 C 651.50 490.16 657.87 484.59 665.60 483.52 C 665.01 490.48 658.50 494.61 653.46 498.51 C 651.25 500.51 647.00 500.00 646.15 503.26 C 648.87 504.01 651.84 503.75 654.32 502.38 C 659.72 499.39 665.25 495.93 668.51 490.51 C 670.21 487.76 670.92 483.93 669.01 481.11 C 666.88 478.46 663.00 479.14 660.18 480.11 M 678.17 481.05 C 677.85 486.51 678.90 491.93 679.29 497.37 C 668.28 512.25 661.54 530.10 648.58 543.57 C 644.88 547.21 640.59 551.51 634.96 551.16 C 630.09 550.67 626.89 546.26 624.72 542.29 C 623.31 540.00 622.76 536.67 619.68 536.02 C 620.20 540.73 622.48 545.01 625.16 548.84 C 627.86 552.55 632.12 555.84 636.98 555.18 C 643.83 554.41 648.98 549.22 653.54 544.52 C 664.32 532.34 670.95 517.28 680.22 504.04 C 681.54 509.90 682.36 516.14 685.69 521.27 C 687.48 524.27 691.69 525.58 694.77 523.75 C 699.15 521.28 702.24 517.14 705.10 513.12 C 705.98 511.73 707.35 510.10 706.26 508.43 C 704.52 507.79 703.88 509.99 702.81 510.86 C 699.90 514.21 697.15 518.06 693.00 519.95 C 691.06 521.03 689.19 519.38 688.40 517.71 C 685.51 511.93 684.84 505.37 684.06 499.05 C 687.56 494.91 691.47 491.16 695.41 487.46 C 698.50 485.57 701.89 484.18 704.87 482.10 C 704.84 481.42 704.77 480.06 704.74 479.38 C 696.19 481.00 689.08 486.46 683.23 492.64 C 682.41 488.00 681.86 483.27 679.98 478.92 C 679.53 479.45 678.63 480.52 678.17 481.05 Z" />
<path fill="#ece45f" opacity="1.00" d=" M 594.51 229.00 C 598.53 221.11 605.09 213.23 614.49 212.24 C 614.15 215.11 612.92 217.78 610.85 219.80 C 606.66 224.12 602.00 228.49 595.99 229.98 L 596.28 230.56 C 595.68 230.05 595.08 229.53 594.51 229.00 Z" />
<path fill="#ece45f" opacity="1.00" d=" M 157.65 236.74 C 221.19 236.74 284.73 236.75 348.27 236.73 C 348.24 263.96 348.27 291.19 348.26 318.42 C 375.51 318.40 402.77 318.41 430.02 318.42 C 430.02 345.94 430.02 373.46 430.02 400.98 C 409.21 403.13 389.12 411.02 372.14 423.21 C 369.53 424.77 367.38 427.85 364.00 427.40 C 304.25 427.38 244.49 427.38 184.74 427.40 C 184.76 436.46 184.76 445.51 184.74 454.57 C 237.09 454.58 289.45 454.56 341.80 454.58 C 336.07 463.00 331.66 472.26 328.22 481.83 C 280.39 481.83 232.57 481.84 184.75 481.82 C 184.75 490.94 184.75 500.06 184.75 509.17 C 230.45 509.15 276.15 509.21 321.84 509.14 C 319.35 531.59 323.05 554.76 332.92 575.11 C 340.62 591.72 352.39 606.33 366.55 617.89 C 296.91 617.94 227.28 617.89 157.64 617.92 C 157.67 490.86 157.66 363.80 157.65 236.74 M 184.75 372.84 C 184.75 381.95 184.75 391.06 184.75 400.17 C 257.42 400.17 330.08 400.17 402.74 400.17 C 402.74 391.05 402.75 381.94 402.74 372.83 C 330.07 372.84 257.41 372.82 184.75 372.84 Z" />
<path fill="#ece45f" opacity="1.00" d=" M 375.45 242.32 C 391.70 258.66 408.01 274.94 424.36 291.18 C 408.06 291.16 391.76 291.16 375.45 291.18 C 375.47 274.89 375.48 258.60 375.45 242.32 Z" />
<path fill="#ece45f" opacity="1.00" d=" M 431.45 429.74 C 448.78 427.43 466.77 430.13 482.61 437.54 C 499.56 445.30 514.05 458.28 523.73 474.20 C 532.80 489.09 537.43 506.54 537.30 523.95 C 536.97 542.09 531.40 560.10 521.20 575.12 C 510.39 591.05 494.62 603.58 476.59 610.36 C 446.83 621.90 411.39 616.57 386.36 596.77 C 369.12 583.61 356.80 564.21 352.15 543.03 C 344.41 510.77 356.18 474.97 380.98 453.08 C 394.93 440.45 412.78 432.13 431.45 429.74 M 402.76 522.66 C 416.29 536.33 430.00 549.85 443.54 563.51 C 466.27 540.86 488.93 518.15 511.62 495.46 C 498.05 481.81 484.35 468.30 470.83 454.59 C 448.14 477.28 425.46 499.98 402.76 522.66 M 389.11 536.31 C 389.09 549.93 389.10 563.56 389.11 577.18 C 402.74 577.17 416.38 577.21 430.02 577.16 C 416.34 563.59 402.78 549.89 389.11 536.31 Z" />
</g>
<g id="#000000ff">
<path fill="#000000" opacity="1.00" d=" M 583.29 181.96 C 583.43 181.14 583.57 180.33 583.71 179.52 C 589.81 180.98 596.48 184.11 598.67 190.48 C 600.98 197.53 597.34 204.67 593.63 210.51 C 586.08 221.76 575.43 230.41 567.04 240.98 C 563.10 245.58 559.95 250.75 556.43 255.66 C 555.91 254.49 554.69 253.35 555.28 251.96 C 556.54 244.56 559.16 237.47 560.60 230.11 C 562.33 222.79 563.22 215.31 564.31 207.88 C 565.83 206.94 566.64 207.32 566.73 209.04 C 567.24 218.65 565.43 228.19 563.55 237.57 C 572.23 227.27 582.76 218.60 590.64 207.63 C 593.74 202.94 596.97 197.28 595.38 191.48 C 593.71 186.11 588.07 183.83 583.29 181.96 Z" />
<path fill="#000000" opacity="1.00" d=" M 503.96 184.68 C 510.39 184.55 516.79 183.96 523.08 182.63 C 524.81 184.47 522.19 185.30 521.07 186.03 C 512.46 189.27 503.00 188.15 494.17 190.32 C 490.91 191.28 487.03 193.09 486.72 196.95 C 485.88 202.01 490.35 205.50 493.88 208.23 C 499.09 212.60 505.22 216.41 508.45 222.62 C 510.80 227.19 510.09 232.93 507.09 237.04 C 501.53 246.05 490.52 251.88 479.91 249.80 C 472.42 248.58 465.11 243.66 462.76 236.20 C 461.36 229.17 462.81 221.08 467.95 215.84 C 468.58 215.73 469.85 215.50 470.48 215.39 C 467.81 221.32 463.62 227.45 465.64 234.28 C 469.00 245.22 483.47 249.00 493.05 244.15 C 497.91 241.60 502.25 237.66 504.63 232.65 C 506.34 228.94 505.38 224.38 502.50 221.54 C 496.90 215.40 488.97 211.79 484.02 205.02 C 480.48 199.84 481.67 191.66 487.07 188.16 C 491.99 184.75 498.23 184.94 503.96 184.68 Z" />
<path fill="#000000" opacity="1.00" d=" M 520.99 227.98 C 527.67 218.43 537.41 210.65 548.78 207.64 C 548.78 210.35 546.23 211.18 544.26 212.24 C 533.93 217.39 525.58 226.28 520.78 236.75 C 519.03 240.37 518.63 244.52 519.79 248.38 C 526.07 247.85 530.81 243.11 534.20 238.19 C 539.19 230.45 541.91 221.58 545.76 213.27 C 546.57 213.43 547.39 213.60 548.22 213.77 C 545.96 225.42 540.14 236.36 540.29 248.45 C 545.62 244.87 549.39 239.56 553.01 234.37 C 553.59 234.44 554.73 234.58 555.31 234.66 C 552.84 241.06 548.96 247.16 543.42 251.32 C 541.34 253.00 538.78 251.98 536.54 251.32 C 536.08 248.94 535.79 246.53 535.63 244.12 C 531.60 248.54 526.26 252.69 519.95 252.36 C 516.51 251.89 514.81 248.24 514.70 245.13 C 514.61 238.87 517.42 232.97 520.99 227.98 Z" />
<path fill="#000000" opacity="1.00" d=" M 600.21 214.22 C 604.15 210.99 608.79 207.80 614.12 207.94 C 616.74 208.00 618.90 210.38 618.94 212.96 C 619.25 218.20 615.28 222.43 611.56 225.59 C 606.76 229.18 601.40 233.43 594.97 232.25 L 595.97 230.63 C 595.23 230.72 593.74 230.90 592.99 230.99 L 593.90 231.08 C 592.51 236.18 591.53 241.99 594.23 246.85 C 595.25 248.86 597.80 249.98 599.90 248.89 C 604.52 246.70 606.93 241.95 610.23 238.31 C 610.84 238.33 612.06 238.36 612.67 238.38 C 610.36 243.43 607.03 248.20 602.38 251.34 C 599.44 253.32 594.82 253.47 592.43 250.56 C 589.53 247.47 588.74 243.03 588.68 238.95 C 588.31 229.46 593.19 220.35 600.21 214.22 M 594.51 229.00 C 595.08 229.53 595.68 230.05 596.28 230.56 L 595.99 229.98 C 602.00 228.49 606.66 224.12 610.85 219.80 C 612.92 217.78 614.15 215.11 614.49 212.24 C 605.09 213.23 598.53 221.11 594.51 229.00 Z" />
<path fill="#000000" opacity="1.00" d=" M 130.35 645.26 C 130.34 500.02 130.35 354.77 130.34 209.52 C 213.93 209.52 297.52 209.52 381.10 209.52 C 406.46 234.88 431.87 260.18 457.19 285.58 C 457.13 324.05 457.18 362.52 457.16 400.98 C 494.80 404.77 529.72 427.58 548.90 460.07 C 560.10 479.02 566.23 501.00 566.14 523.03 C 566.07 554.05 553.82 585.00 532.14 607.26 C 517.11 623.03 497.85 634.76 476.82 640.56 C 470.06 642.79 462.87 643.18 456.07 645.14 C 347.50 645.40 238.92 645.16 130.35 645.26 M 157.65 236.74 C 157.66 363.80 157.67 490.86 157.64 617.92 C 227.28 617.89 296.91 617.94 366.55 617.89 C 352.39 606.33 340.62 591.72 332.92 575.11 C 323.05 554.76 319.35 531.59 321.84 509.14 C 276.15 509.21 230.45 509.15 184.75 509.17 C 184.75 500.06 184.75 490.94 184.75 481.82 C 232.57 481.84 280.39 481.83 328.22 481.83 C 331.66 472.26 336.07 463.00 341.80 454.58 C 289.45 454.56 237.09 454.58 184.74 454.57 C 184.76 445.51 184.76 436.46 184.74 427.40 C 244.49 427.38 304.25 427.38 364.00 427.40 C 367.38 427.85 369.53 424.77 372.14 423.21 C 389.12 411.02 409.21 403.13 430.02 400.98 C 430.02 373.46 430.02 345.94 430.02 318.42 C 402.77 318.41 375.51 318.40 348.26 318.42 C 348.27 291.19 348.24 263.96 348.27 236.73 C 284.73 236.75 221.19 236.74 157.65 236.74 M 375.45 242.32 C 375.48 258.60 375.47 274.89 375.45 291.18 C 391.76 291.16 408.06 291.16 424.36 291.18 C 408.01 274.94 391.70 258.66 375.45 242.32 M 431.45 429.74 C 412.78 432.13 394.93 440.45 380.98 453.08 C 356.18 474.97 344.41 510.77 352.15 543.03 C 356.80 564.21 369.12 583.61 386.36 596.77 C 411.39 616.57 446.83 621.90 476.59 610.36 C 494.62 603.58 510.39 591.05 521.20 575.12 C 531.40 560.10 536.97 542.09 537.30 523.95 C 537.43 506.54 532.80 489.09 523.73 474.20 C 514.05 458.28 499.56 445.30 482.61 437.54 C 466.77 430.13 448.78 427.43 431.45 429.74 Z" />
<path fill="#000000" opacity="1.00" d=" M 564.54 313.59 C 564.79 311.83 565.80 311.14 567.56 311.52 C 564.68 326.31 559.58 340.58 555.61 355.10 C 560.97 349.82 566.78 344.69 573.84 341.82 C 575.89 341.19 578.90 340.46 580.26 342.67 C 581.91 344.57 581.00 347.25 580.57 349.44 C 577.99 359.02 573.31 367.88 570.75 377.46 C 570.17 379.59 570.32 381.82 570.47 384.01 C 576.08 383.35 580.28 379.30 585.41 377.43 C 585.36 378.05 585.25 379.28 585.20 379.90 C 581.02 383.45 576.02 386.01 570.76 387.54 C 568.81 386.26 566.42 384.67 566.47 382.04 C 567.32 369.19 574.70 358.03 576.98 345.49 C 570.62 347.67 565.66 352.37 560.71 356.72 C 557.35 360.00 553.62 363.28 551.92 367.78 C 548.91 376.59 546.82 385.89 542.13 394.00 L 540.37 393.19 C 541.07 386.65 543.20 380.34 545.03 374.05 C 551.50 353.88 557.72 333.64 564.54 313.59 Z" />
<path fill="#000000" opacity="1.00" d=" M 526.67 353.10 C 529.93 344.22 533.58 335.05 540.05 327.99 C 540.57 328.09 541.62 328.31 542.14 328.41 C 539.35 336.80 534.56 344.42 531.66 352.80 C 534.24 352.82 536.86 352.94 539.31 353.88 C 536.84 356.12 533.44 356.34 530.31 356.77 C 527.97 364.60 526.16 372.80 526.78 381.02 C 526.99 382.61 527.54 385.88 529.84 384.56 C 534.01 382.54 536.19 378.08 539.76 375.30 C 540.39 375.37 541.65 375.51 542.29 375.58 C 539.09 380.51 535.55 385.85 530.07 388.42 C 525.89 389.93 523.52 385.38 522.93 382.01 C 521.44 373.71 523.69 365.38 525.44 357.30 C 520.57 357.25 515.33 357.56 510.93 355.13 C 509.49 354.52 509.05 352.92 508.34 351.70 C 514.50 350.95 520.50 353.25 526.67 353.10 Z" />
<path fill="#000000" opacity="1.00" d=" M 601.84 346.76 C 604.86 344.89 608.37 343.25 612.02 343.67 C 615.71 344.18 617.30 348.69 616.03 351.87 C 613.51 358.89 606.82 363.12 600.68 366.69 C 597.98 367.97 593.80 369.39 592.02 366.07 C 598.77 364.45 604.30 359.86 608.82 354.78 C 610.62 352.84 611.71 350.37 611.69 347.70 C 598.83 350.18 589.75 363.29 589.94 376.03 C 590.04 379.61 591.41 385.19 595.99 384.85 C 601.51 383.45 603.96 377.74 607.71 374.05 C 608.29 374.13 609.46 374.28 610.04 374.36 C 607.46 379.30 604.21 384.18 599.39 387.17 C 596.71 388.90 592.65 389.11 590.33 386.68 C 587.20 383.70 586.15 379.20 585.92 375.03 C 585.62 363.63 592.27 352.69 601.84 346.76 Z" />
<path fill="#000000" opacity="1.00" d=" M 184.75 372.84 C 257.41 372.82 330.07 372.84 402.74 372.83 C 402.75 381.94 402.74 391.05 402.74 400.17 C 330.08 400.17 257.42 400.17 184.75 400.17 C 184.75 391.06 184.75 381.95 184.75 372.84 Z" />
<path fill="#000000" opacity="1.00" d=" M 651.05 452.12 C 656.18 451.15 660.86 448.74 665.90 447.43 C 665.92 450.58 662.96 452.18 660.59 453.52 C 651.60 458.17 641.26 458.59 631.36 458.92 C 630.68 469.68 627.25 479.96 623.87 490.10 C 620.30 500.58 615.55 510.60 610.54 520.45 C 609.41 522.56 608.41 525.21 605.59 525.37 C 606.72 520.37 609.25 515.88 611.14 511.16 C 614.06 503.97 617.02 496.79 619.46 489.41 C 622.99 478.91 624.91 467.95 628.73 457.54 C 619.97 458.89 610.76 460.24 603.26 465.32 C 599.95 467.42 597.82 470.77 595.34 473.70 C 595.03 473.22 594.42 472.26 594.11 471.77 C 597.13 464.49 604.15 459.51 611.56 457.35 C 624.41 453.60 638.07 455.22 651.05 452.12 Z" />
<path fill="#000000" opacity="1.00" d=" M 402.76 522.66 C 425.46 499.98 448.14 477.28 470.83 454.59 C 484.35 468.30 498.05 481.81 511.62 495.46 C 488.93 518.15 466.27 540.86 443.54 563.51 C 430.00 549.85 416.29 536.33 402.76 522.66 Z" />
<path fill="#000000" opacity="1.00" d=" M 713.81 488.71 C 717.03 479.55 721.02 470.36 727.57 463.05 C 727.55 465.31 728.01 467.74 726.98 469.86 C 724.15 476.04 721.10 482.13 718.78 488.53 C 720.94 488.54 723.12 488.47 725.28 488.78 C 725.24 489.31 725.17 490.39 725.14 490.93 C 722.62 491.79 719.96 492.06 717.36 492.48 C 715.06 501.63 711.93 511.44 714.91 520.81 C 720.57 519.43 723.37 513.84 727.44 510.21 C 727.51 511.15 727.66 513.04 727.73 513.98 C 724.46 517.98 721.36 522.96 716.04 524.31 C 712.53 524.68 710.73 520.89 710.11 518.02 C 708.61 509.60 710.69 501.12 712.53 492.93 C 707.72 492.81 702.53 493.23 698.15 490.86 C 697.16 490.17 695.25 489.69 696.16 488.15 C 697.61 486.48 700.02 487.32 701.92 487.46 C 705.84 488.19 709.81 488.69 713.81 488.71 Z" />
<path fill="#000000" opacity="1.00" d=" M 660.18 480.11 C 663.00 479.14 666.88 478.46 669.01 481.11 C 670.92 483.93 670.21 487.76 668.51 490.51 C 665.25 495.93 659.72 499.39 654.32 502.38 C 651.84 503.75 648.87 504.01 646.15 503.26 C 647.00 500.00 651.25 500.51 653.46 498.51 C 658.50 494.61 665.01 490.48 665.60 483.52 C 657.87 484.59 651.50 490.16 647.76 496.79 C 644.37 502.67 642.52 509.94 644.66 516.57 C 645.42 519.13 648.14 521.53 650.90 520.23 C 655.84 517.99 658.40 512.90 661.95 509.10 C 662.33 509.54 663.10 510.42 663.48 510.86 C 661.20 515.25 658.17 519.40 654.09 522.27 C 651.66 524.10 648.25 524.40 645.46 523.33 C 641.87 521.18 640.52 516.83 640.00 512.91 C 638.38 499.08 647.53 485.33 660.18 480.11 Z" />
<path fill="#000000" opacity="1.00" d=" M 678.17 481.05 C 678.63 480.52 679.53 479.45 679.98 478.92 C 681.86 483.27 682.41 488.00 683.23 492.64 C 689.08 486.46 696.19 481.00 704.74 479.38 C 704.77 480.06 704.84 481.42 704.87 482.10 C 701.89 484.18 698.50 485.57 695.41 487.46 C 691.47 491.16 687.56 494.91 684.06 499.05 C 684.84 505.37 685.51 511.93 688.40 517.71 C 689.19 519.38 691.06 521.03 693.00 519.95 C 697.15 518.06 699.90 514.21 702.81 510.86 C 703.88 509.99 704.52 507.79 706.26 508.43 C 707.35 510.10 705.98 511.73 705.10 513.12 C 702.24 517.14 699.15 521.28 694.77 523.75 C 691.69 525.58 687.48 524.27 685.69 521.27 C 682.36 516.14 681.54 509.90 680.22 504.04 C 670.95 517.28 664.32 532.34 653.54 544.52 C 648.98 549.22 643.83 554.41 636.98 555.18 C 632.12 555.84 627.86 552.55 625.16 548.84 C 622.48 545.01 620.20 540.73 619.68 536.02 C 622.76 536.67 623.31 540.00 624.72 542.29 C 626.89 546.26 630.09 550.67 634.96 551.16 C 640.59 551.51 644.88 547.21 648.58 543.57 C 661.54 530.10 668.28 512.25 679.29 497.37 C 678.90 491.93 677.85 486.51 678.17 481.05 Z" />
<path fill="#000000" opacity="1.00" d=" M 389.11 536.31 C 402.78 549.89 416.34 563.59 430.02 577.16 C 416.38 577.21 402.74 577.17 389.11 577.18 C 389.10 563.56 389.09 549.93 389.11 536.31 Z" />
</g>
</svg>
