<?xml version="1.0" encoding="UTF-8" ?>
<!DOCTYPE svg PUBLIC "-//W3C//DTD SVG 1.1//EN" "http://www.w3.org/Graphics/SVG/1.1/DTD/svg11.dtd">
<svg width="843pt" height="843pt" viewBox="0 0 843 843" version="1.1" xmlns="http://www.w3.org/2000/svg">
<g id="#ece45fff">
</g>
<g id="#000000ff">
<path fill="#000000" opacity="1.00" d=" M 583.31 180.09 C 591.13 180.06 599.72 186.67 599.37 195.07 C 599.29 201.97 595.37 208.07 591.54 213.53 C 583.02 224.61 572.18 233.68 563.90 244.97 C 561.33 248.15 559.42 251.79 556.87 254.98 C 555.64 254.93 555.07 254.33 555.16 253.16 C 556.05 245.92 558.73 239.06 560.19 231.93 C 562.12 224.01 563.18 215.92 564.30 207.86 C 564.78 207.73 565.75 207.47 566.24 207.34 C 567.22 209.78 566.78 212.48 566.77 215.04 C 566.47 222.61 565.05 230.06 563.59 237.48 C 570.67 229.28 578.68 221.96 585.79 213.79 C 590.17 208.66 594.61 202.96 595.73 196.13 C 596.72 190.69 592.66 185.84 587.84 183.94 C 586.23 182.80 582.75 182.73 583.31 180.09 Z" />
<path fill="#000000" opacity="1.00" d=" M 507.03 184.55 C 512.56 184.47 518.01 183.58 523.44 182.60 C 523.37 183.18 523.22 184.32 523.14 184.89 C 514.03 189.90 503.05 187.68 493.34 190.58 C 490.32 191.56 486.94 193.46 486.71 197.02 C 485.98 201.17 489.17 204.49 492.15 206.85 C 497.37 211.25 503.35 214.99 507.32 220.67 C 510.46 225.04 510.72 231.25 507.83 235.82 C 502.46 245.48 491.03 251.99 479.93 249.81 C 472.44 248.59 465.13 243.68 462.77 236.23 C 461.34 229.18 462.83 221.10 467.94 215.83 C 468.57 215.73 469.85 215.52 470.49 215.42 C 467.63 221.52 463.35 228.08 465.89 235.09 C 470.23 246.43 486.19 249.38 495.61 242.68 C 500.19 239.38 505.04 234.89 505.47 228.91 C 505.77 224.81 502.84 221.54 499.95 219.06 C 494.43 213.91 487.19 210.38 483.23 203.73 C 480.78 198.54 482.06 191.37 487.09 188.15 C 492.94 184.18 500.33 185.05 507.03 184.55 Z" />
<path fill="#000000" opacity="1.00" d=" M 521.40 227.42 C 527.96 218.26 537.38 210.78 548.33 207.76 C 549.35 210.35 546.53 210.91 544.88 211.91 C 534.52 216.93 526.08 225.66 521.10 236.02 C 519.16 239.83 518.51 244.26 519.80 248.39 C 526.10 247.84 530.85 243.08 534.23 238.13 C 539.15 230.45 541.93 221.69 545.65 213.42 C 546.27 213.46 547.50 213.54 548.11 213.57 C 546.19 225.35 540.07 236.27 540.28 248.43 C 544.27 245.77 547.47 242.12 550.21 238.23 C 551.50 236.63 552.51 234.39 554.79 234.10 C 555.15 236.76 553.42 238.98 552.20 241.17 C 549.74 245.18 546.82 249.15 542.78 251.68 C 540.41 253.12 536.28 252.11 536.02 249.01 C 535.76 247.38 535.75 245.73 535.67 244.10 C 531.61 248.50 526.30 252.69 519.97 252.36 C 516.50 251.91 514.80 248.22 514.70 245.09 C 514.63 238.60 517.63 232.53 521.40 227.42 Z" />
<path fill="#000000" opacity="1.00" d=" M 607.37 209.47 C 610.14 208.24 613.51 207.18 616.41 208.60 C 619.09 210.17 619.42 213.75 618.55 216.46 C 617.01 220.82 613.56 224.18 609.91 226.87 C 605.86 229.70 601.48 232.88 596.25 232.42 C 595.50 231.70 594.75 231.01 593.98 230.33 C 592.82 235.51 591.43 241.19 593.90 246.22 C 594.79 248.55 597.58 250.15 599.95 248.87 C 604.32 246.75 606.80 242.37 609.77 238.75 C 610.29 237.22 613.36 238.53 611.95 239.97 C 609.66 244.39 606.52 248.55 602.35 251.36 C 599.41 253.33 594.81 253.47 592.43 250.56 C 588.42 246.13 588.35 239.63 588.95 234.03 C 590.60 223.51 597.85 214.14 607.37 209.47 M 594.57 228.96 C 595.02 229.44 595.48 229.91 595.96 230.38 C 602.37 227.89 607.90 223.47 612.22 218.17 C 613.67 216.52 614.05 214.31 614.49 212.24 C 605.13 213.23 598.53 221.05 594.57 228.96 Z" />
<path fill="#000000" opacity="1.00" d=" M 130.35 645.27 C 130.33 500.02 130.34 354.77 130.35 209.52 C 213.93 209.52 297.52 209.52 381.10 209.52 C 405.54 233.88 429.88 258.34 454.37 282.65 C 455.44 283.93 457.26 285.05 457.14 286.94 C 457.20 324.95 457.14 362.97 457.16 400.98 C 494.78 404.77 529.69 427.56 548.88 460.03 C 560.43 479.56 566.60 502.30 566.11 525.00 C 565.56 556.99 551.97 588.65 528.71 610.69 C 513.64 625.43 494.66 636.04 474.25 641.27 C 468.27 643.05 461.95 643.34 455.99 645.15 C 347.45 645.39 238.90 645.16 130.35 645.27 M 157.65 236.74 C 157.66 363.80 157.67 490.86 157.64 617.92 C 227.24 617.90 296.85 617.93 366.45 617.91 C 352.60 606.36 340.86 592.10 333.21 575.72 C 323.13 555.22 319.32 531.82 321.85 509.15 C 276.15 509.21 230.45 509.15 184.75 509.17 C 184.75 500.06 184.75 490.94 184.75 481.82 C 232.57 481.84 280.39 481.83 328.21 481.83 C 331.66 472.26 336.07 463.01 341.80 454.59 C 289.44 454.55 237.09 454.59 184.73 454.57 C 184.76 445.51 184.76 436.46 184.73 427.41 C 243.49 427.37 302.24 427.37 360.99 427.41 C 363.41 427.26 366.24 428.00 368.19 426.13 C 386.00 412.33 407.56 403.28 430.02 400.98 C 429.99 373.46 430.07 345.93 429.98 318.41 C 402.74 318.42 375.50 318.41 348.25 318.42 C 348.28 291.19 348.23 263.96 348.27 236.73 C 284.73 236.75 221.19 236.74 157.65 236.74 M 375.47 242.42 C 375.45 258.67 375.47 274.93 375.46 291.19 C 391.73 291.14 408.00 291.21 424.27 291.15 C 408.00 274.90 391.75 258.65 375.47 242.42 M 431.46 429.74 C 412.78 432.13 394.93 440.45 380.99 453.08 C 356.17 474.98 344.41 510.79 352.16 543.06 C 356.75 563.98 368.83 583.14 385.72 596.29 C 398.99 606.82 415.18 613.57 431.99 615.65 C 447.20 617.76 462.85 615.53 477.18 610.14 C 495.17 603.22 510.87 590.59 521.57 574.57 C 531.54 559.66 536.97 541.87 537.30 523.95 C 537.42 506.58 532.82 489.15 523.78 474.29 C 514.22 458.52 499.94 445.63 483.22 437.82 C 467.23 430.21 449.00 427.40 431.46 429.74 Z" />
<path fill="#000000" opacity="1.00" d=" M 561.05 324.06 C 562.53 319.76 563.58 315.27 565.71 311.22 L 567.52 311.81 C 564.60 326.47 559.59 340.63 555.62 355.03 C 561.03 349.83 566.79 344.65 573.85 341.81 C 575.91 341.17 578.91 340.47 580.28 342.69 C 581.90 344.59 580.99 347.25 580.58 349.44 C 577.99 359.04 573.29 367.92 570.73 377.53 C 570.22 379.56 570.14 381.69 570.50 383.76 C 576.12 383.73 580.13 379.15 585.22 377.52 C 586.45 379.28 584.55 380.41 583.45 381.32 C 579.61 384.10 575.32 386.24 570.76 387.54 C 568.81 386.23 566.38 384.66 566.47 382.00 C 567.33 369.16 574.72 358.02 576.97 345.49 C 570.61 347.68 565.65 352.39 560.70 356.73 C 557.01 360.31 552.91 363.98 551.46 369.09 C 549.24 376.45 546.93 383.79 543.91 390.86 C 543.01 392.04 542.60 395.42 540.41 393.33 C 541.74 382.19 546.00 371.65 549.20 360.95 C 553.12 348.64 556.97 336.31 561.05 324.06 Z" />
<path fill="#000000" opacity="1.00" d=" M 537.22 331.27 C 538.43 329.76 539.60 327.23 541.97 328.21 C 541.90 330.34 540.87 332.25 539.98 334.14 C 536.93 340.25 534.11 346.48 531.65 352.85 C 534.08 352.95 536.78 352.39 538.90 353.96 C 536.89 356.58 533.22 356.13 530.32 356.76 C 527.95 364.58 526.17 372.78 526.78 381.00 C 526.97 382.63 527.57 385.90 529.89 384.55 C 534.09 382.38 536.40 377.94 539.98 375.00 C 540.48 375.23 541.49 375.68 541.99 375.91 C 539.23 380.65 535.67 385.24 530.90 388.07 C 527.85 389.85 524.53 387.61 523.69 384.54 C 520.76 375.61 523.58 366.17 525.45 357.31 C 519.94 357.22 513.61 357.69 509.14 353.84 C 509.12 353.33 509.07 352.30 509.04 351.79 C 514.92 350.83 520.74 353.42 526.69 353.07 C 529.30 345.42 532.69 338.00 537.22 331.27 Z" />
<path fill="#000000" opacity="1.00" d=" M 601.78 346.80 C 604.83 344.90 608.36 343.24 612.05 343.67 C 615.73 344.20 617.29 348.71 616.02 351.89 C 613.62 358.67 607.24 362.79 601.36 366.33 C 598.54 367.81 594.03 369.60 592.01 366.08 C 598.74 364.45 604.26 359.89 608.78 354.84 C 610.60 352.88 611.72 350.39 611.67 347.69 C 598.83 350.19 589.76 363.29 589.94 376.03 C 590.04 379.62 591.44 385.26 596.06 384.84 C 601.69 383.27 604.25 377.47 608.01 373.54 C 608.46 373.86 609.35 374.48 609.80 374.79 C 607.33 379.65 603.98 384.32 599.28 387.24 C 596.61 388.92 592.60 389.07 590.31 386.67 C 587.20 383.68 586.15 379.19 585.92 375.03 C 585.62 363.66 592.24 352.74 601.78 346.80 Z" />
<path fill="#000000" opacity="1.00" d=" M 184.75 372.84 C 257.41 372.82 330.08 372.84 402.74 372.84 C 402.74 381.94 402.74 391.05 402.74 400.16 C 330.08 400.17 257.42 400.17 184.75 400.17 C 184.75 391.06 184.75 381.95 184.75 372.84 Z" />
<path fill="#000000" opacity="1.00" d=" M 652.73 451.72 C 657.24 450.70 661.40 448.56 665.88 447.43 C 665.93 450.59 662.95 452.18 660.57 453.53 C 651.59 458.18 641.25 458.58 631.36 458.93 C 630.73 469.14 627.57 478.93 624.39 488.58 C 620.11 501.32 614.33 513.51 607.88 525.29 C 607.29 525.03 606.09 524.50 605.50 524.24 C 610.38 513.00 615.26 501.75 619.21 490.14 C 622.89 479.42 624.83 468.19 628.73 457.54 C 618.51 459.17 607.07 460.69 599.56 468.55 C 597.74 470.07 596.90 473.88 593.91 472.75 C 596.14 465.39 603.01 460.33 610.01 457.85 C 623.82 453.29 638.74 455.48 652.73 451.72 Z" />
<path fill="#000000" opacity="1.00" d=" M 449.73 475.70 C 456.85 468.83 463.51 461.44 470.89 454.86 C 484.60 468.24 498.01 481.94 511.62 495.44 C 488.95 518.15 466.27 540.87 443.53 563.51 C 430.00 549.84 416.31 536.34 402.77 522.68 C 418.39 506.99 434.08 491.36 449.73 475.70 Z" />
<path fill="#000000" opacity="1.00" d=" M 713.81 488.71 C 717.07 479.59 720.92 470.30 727.62 463.13 C 727.53 465.35 728.00 467.75 726.99 469.83 C 724.17 476.02 721.09 482.11 718.79 488.53 C 720.94 488.53 723.11 488.47 725.27 488.77 C 725.24 489.31 725.17 490.39 725.14 490.93 C 722.62 491.79 719.96 492.05 717.35 492.48 C 715.28 500.15 713.26 508.05 713.75 516.06 C 714.04 517.67 714.13 519.92 715.92 520.64 C 721.03 518.72 723.54 513.36 727.78 510.22 C 728.42 514.56 724.98 517.56 722.36 520.44 C 720.32 522.34 717.88 524.44 714.92 524.33 C 711.65 523.56 710.44 519.94 709.92 517.02 C 708.83 508.90 710.74 500.80 712.53 492.93 C 707.71 492.81 702.49 493.23 698.11 490.84 C 697.11 490.18 695.32 489.65 696.16 488.15 C 697.61 486.48 700.02 487.33 701.92 487.46 C 705.84 488.19 709.81 488.68 713.81 488.71 Z" />
<path fill="#000000" opacity="1.00" d=" M 660.21 480.09 C 663.03 479.13 666.95 478.46 669.05 481.16 C 670.91 483.99 670.20 487.78 668.50 490.52 C 665.39 495.73 660.14 499.09 655.00 502.03 C 652.47 503.52 649.40 504.12 646.54 503.37 L 646.42 501.79 C 653.17 499.48 658.95 494.99 663.45 489.51 C 664.93 487.86 665.19 485.59 665.61 483.52 C 658.12 484.56 651.89 489.82 648.13 496.16 C 644.60 501.99 642.62 509.17 644.43 515.90 C 645.08 518.37 647.16 521.12 650.06 520.50 C 655.56 518.65 658.22 513.03 661.98 509.06 C 662.36 509.51 663.12 510.41 663.49 510.85 C 661.06 515.45 657.87 519.88 653.42 522.70 C 650.76 524.39 647.04 524.67 644.48 522.66 C 641.39 520.07 640.30 515.93 639.91 512.08 C 638.75 498.49 647.80 485.21 660.21 480.09 Z" />
<path fill="#000000" opacity="1.00" d=" M 678.30 480.26 C 678.75 480.04 679.65 479.61 680.10 479.40 C 682.06 483.55 682.36 488.18 683.22 492.63 C 688.95 486.73 695.72 481.16 704.03 479.61 C 704.43 479.97 705.23 480.68 705.63 481.04 C 702.85 484.38 698.20 485.25 694.90 487.92 C 691.14 491.49 687.39 495.09 684.06 499.06 C 684.85 505.37 685.51 511.91 688.39 517.68 C 689.15 519.35 691.04 521.00 692.97 519.96 C 698.19 517.55 701.16 512.28 705.10 508.35 C 706.82 507.85 707.00 510.28 706.27 511.22 C 703.41 515.82 700.05 520.35 695.47 523.35 C 692.36 525.66 687.63 524.56 685.69 521.28 C 682.37 516.15 681.53 509.92 680.24 504.08 C 670.91 517.27 664.34 532.35 653.55 544.51 C 649.00 549.21 643.85 554.39 637.01 555.18 C 632.14 555.85 627.87 552.56 625.16 548.84 C 622.62 545.16 620.36 541.11 619.71 536.63 C 621.91 535.52 622.52 538.17 623.32 539.51 C 625.57 544.22 628.55 549.63 633.99 551.04 C 639.69 552.02 644.34 547.78 648.07 544.08 C 661.37 530.57 668.17 512.42 679.30 497.32 C 678.90 491.65 677.67 485.96 678.30 480.26 Z" />
<path fill="#000000" opacity="1.00" d=" M 389.11 536.32 C 402.78 549.89 416.33 563.58 430.01 577.16 C 416.37 577.21 402.74 577.17 389.11 577.18 C 389.10 563.56 389.09 549.94 389.11 536.32 Z" />
</g>
</svg>
